<svg width="29" height="28" viewBox="0 0 29 28" fill="none" xmlns="http://www.w3.org/2000/svg">
<g clip-path="url(#clip0_7_57)">
<path fill-rule="evenodd" clip-rule="evenodd" d="M26.1 23.3453C26.1 24.08 25.3851 24.6666 24.5847 24.6666H20.2347C19.4358 24.6666 18.85 24.08 18.85 23.3453V19.3453C18.85 18.6106 19.4358 18 20.2347 18H24.5847C25.3851 18 26.1 18.6106 26.1 19.3453V23.3453ZM24.5847 15.3333H20.2347C17.8321 15.3333 15.95 17.136 15.95 19.3453V23.3453C15.95 25.5546 17.8321 27.3333 20.2347 27.3333H24.5847C26.9874 27.3333 29 25.5546 29 23.3453V19.3453C29 17.136 26.9874 15.3333 24.5847 15.3333ZM10.15 23.3453C10.15 24.08 9.43515 24.6666 8.63475 24.6666H4.28475C3.4858 24.6666 2.9 24.08 2.9 23.3453V19.3453C2.9 18.6106 3.4858 18 4.28475 18H8.63475C9.43515 18 10.15 18.6106 10.15 19.3453V23.3453ZM8.63475 15.3333H4.28475C1.8821 15.3333 0 17.136 0 19.3453V23.3453C0 25.5546 1.8821 27.3333 4.28475 27.3333H8.63475C11.0374 27.3333 13.05 25.5546 13.05 23.3453V19.3453C13.05 17.136 11.0374 15.3333 8.63475 15.3333ZM26.1 8.67863C26.1 9.41329 25.3851 9.99996 24.5847 9.99996H20.2347C19.4358 9.99996 18.85 9.41329 18.85 8.67863V4.67862C18.85 3.94396 19.4358 3.33329 20.2347 3.33329H24.5847C25.3851 3.33329 26.1 3.94396 26.1 4.67862V8.67863ZM24.5847 0.666626H20.2347C17.8321 0.666626 15.95 2.46929 15.95 4.67862V8.67863C15.95 10.888 17.8321 12.6666 20.2347 12.6666H24.5847C26.9874 12.6666 29 10.888 29 8.67863V4.67862C29 2.46929 26.9874 0.666626 24.5847 0.666626ZM10.15 8.67863C10.15 9.41329 9.43515 9.99996 8.63475 9.99996H4.28475C3.4858 9.99996 2.9 9.41329 2.9 8.67863V4.67862C2.9 3.94396 3.4858 3.33329 4.28475 3.33329H8.63475C9.43515 3.33329 10.15 3.94396 10.15 4.67862V8.67863ZM8.63475 0.666626H4.28475C1.8821 0.666626 0 2.46929 0 4.67862V8.67863C0 10.888 1.8821 12.6666 4.28475 12.6666H8.63475C11.0374 12.6666 13.05 10.888 13.05 8.67863V4.67862C13.05 2.46929 11.0374 0.666626 8.63475 0.666626Z" fill="black"/>
</g>
<defs>
<clipPath id="clip0_7_57">
<rect width="29" height="28" fill="white"/>
</clipPath>
</defs>
</svg>
